<svg width="182" height="98" viewBox="0 0 182 98" fill="none" xmlns="http://www.w3.org/2000/svg">
<path fill-rule="evenodd" clip-rule="evenodd" d="M35.8509 27.5619C35.7388 27.8587 35.6997 29.1348 35.7638 30.3976L35.8804 32.6938L38.4707 32.6084C41.3703 32.5129 41.6566 32.7753 39.7755 33.8049L38.4895 34.5089L35.5216 52.711C33.8891 62.7221 32.4562 71.3359 32.3373 71.8526L32.1208 72.7925L35.1206 72.5347C36.7703 72.3928 38.1806 72.2157 38.2543 72.1405C38.328 72.0656 38.8353 69.3895 39.3817 66.1939C39.9278 62.9979 40.4036 60.3498 40.439 60.3092C40.4946 60.2453 47.092 59.7839 49.8738 59.649C50.7967 59.6045 50.8439 59.743 51.7714 65.2115L52.7227 70.82L55.5909 70.5735C57.1681 70.4378 58.5269 70.258 58.6102 70.1733C58.7364 70.0446 57.1212 60.1022 52.2676 31.1339L51.6141 27.2339L43.8344 27.1283C37.4952 27.0425 36.0166 27.1228 35.8509 27.5619ZM61.6556 27.2991C61.5148 27.4418 61.3996 28.6633 61.3996 30.013V32.4673L64.5656 32.5807L67.7315 32.6938L66.2924 33.4485L64.8534 34.2031V52.0706V69.9382H66.7241C67.753 69.9382 69.1345 69.8286 69.7941 69.6944L70.9933 69.4507V62.5252C70.9933 54.6657 70.775 55.1333 74.4471 55.1255L76.1739 55.1216L80.0356 62.0424L83.8969 68.9632L87.2308 69.0759C89.0644 69.1379 90.5645 69.0892 90.5645 68.9683C90.5645 68.847 88.6649 65.3269 86.3432 61.1458C84.0216 56.9651 82.122 53.4075 82.122 53.2406C82.122 53.0741 83.3308 51.8374 84.8083 50.4931L87.4945 48.049V40.934V33.8194L83.4352 30.4291L79.3759 27.0389H70.6437C65.8408 27.0389 61.7961 27.1559 61.6556 27.2991ZM92.4832 29.7689V32.4988H95.3613C98.4156 32.4988 98.972 32.876 97.0882 33.6688L95.9369 34.1536V51.5956V69.0377L100.83 69.2916C103.521 69.4308 107.166 69.5458 108.931 69.5466L112.14 69.5482L115.729 66.7207L119.319 63.8933L119.332 57.9771L119.346 52.0605L117.065 50.1772C114.308 47.9004 114.31 47.9106 116.467 45.7586L118.194 44.0364V38.9084V33.7804L114.543 30.6635L110.892 27.5467L106.808 27.2928C104.562 27.1532 100.421 27.0389 97.6039 27.0389H92.4832V29.7689ZM124.334 29.7689V32.4988H127.212C130.267 32.4988 130.823 32.876 128.939 33.6688L127.788 34.1536V52.3854V70.6175L131.338 70.8851C133.29 71.0321 137.981 71.4935 141.761 71.9104C145.542 72.3273 148.693 72.6681 148.765 72.6681C148.836 72.6681 148.894 70.4007 148.894 67.629V62.5903L147.839 62.3778C147.259 62.2608 145.92 62.1204 144.865 62.0658L142.946 61.9663L142.83 64.2306L142.714 66.4949L139.376 66.2434C137.541 66.1053 135.563 65.901 134.983 65.7894L133.928 65.5862V58.7801V51.9739L138.053 52.1966C140.322 52.3187 142.826 52.502 143.618 52.6034L145.057 52.7878V50.0532V47.3186L143.809 47.2691C143.123 47.2418 140.663 47.1099 138.341 46.9766L134.12 46.7336L134.015 39.6162L133.911 32.4988H137.948H141.987V35.2288V37.9587H145.057H148.127V32.4988V27.0389H136.23H124.334V29.7689ZM153.371 27.2991C153.23 27.4418 153.115 28.758 153.115 30.224V32.8888H156.185C159.418 32.8888 160.016 33.2539 158.104 34.0588L156.953 34.5436V54.1466V73.7496L158.776 74.0085C159.778 74.1509 161.187 74.3712 161.907 74.498L163.215 74.7281L162.986 66.8514C162.729 57.9553 162.534 58.4794 165.936 58.9197L168.204 59.2134L172.102 67.9882L176.001 76.7631L178.469 77.2322C183.357 78.162 183.54 79.5051 176.674 64.0469L173.798 57.5703L176.504 54.9156L179.21 52.2606V43.6538V35.0471L175.284 31.043L171.357 27.0389H162.492C157.616 27.0389 153.512 27.1559 153.371 27.2991ZM0 30.5333V33.6372L3.16592 33.7507L6.33184 33.8638L5.08466 34.6305L3.83748 35.3969V56.3988C3.83748 76.2182 3.87547 77.389 4.50904 77.1967C4.87859 77.0844 8.43247 76.4503 12.4066 75.7873L19.6325 74.5822L23.1515 70.8469C27.1893 66.5608 27.1555 66.6599 27.2123 58.9685L27.2461 54.4336L24.741 52.1986L22.2359 49.9631L23.9735 47.8962L25.7111 45.8292V39.9922V34.1548L22.1062 30.7918L18.5012 27.4289H9.25062H0V30.5333ZM46.1913 32.8062C46.4316 33.2016 49.9605 54.0101 49.8093 54.1396C49.2778 54.5951 41.4448 54.7105 41.4448 54.2628C41.4448 53.5725 44.8578 33.6099 45.0827 32.9863C45.2795 32.4396 45.9066 32.3378 46.1913 32.8062ZM79.2984 34.2838L81.3545 36.0692V41.0697V46.0702L79.2128 48.0596L77.0715 50.0485H74.0322H70.9933V41.2737V32.4988H74.1178H77.2423L79.2984 34.2838ZM109.998 34.2838L112.054 36.0692V39.0414V42.0139L110.073 43.9038C108.915 45.0094 107.866 45.7056 107.548 45.5812C107.248 45.4642 105.894 45.3686 104.54 45.3686H102.077V38.9337V32.4988H105.009C107.937 32.4988 107.946 32.502 109.998 34.2838ZM171.056 35.3485L173.07 37.3472V43.4495V49.5517L171.168 51.3601C169.139 53.2886 166.362 53.8194 163.693 52.7882L162.709 52.408V42.9081C162.709 37.6834 162.785 33.3319 162.878 33.2375C162.97 33.1435 164.395 33.1302 166.043 33.2082L169.041 33.3502L171.056 35.3485ZM17.9402 35.2307L19.9549 37.1678V40.273V43.3781L18.0223 45.7383C16.226 47.9316 15.975 48.0997 14.4727 48.1134C13.5831 48.1216 12.2082 48.2234 11.4165 48.34L9.97744 48.5521V40.9157V33.2788L12.9515 33.2866L15.9255 33.294L17.9402 35.2307ZM111.191 52.6537L113.206 54.3989V57.8312V61.2636L111.191 62.7802L109.176 64.2973L105.627 64.1651L102.077 64.0329L102.077 57.3332V50.6335L105.626 50.7712L109.176 50.9085L111.191 52.6537ZM19.0304 55.7506L21.1061 57.5532V61.1477V64.7419L19.0915 66.9321L17.0768 69.1223L13.5271 69.6547L9.97744 70.187V62.2861V54.3856L11.4165 54.2324C16.2529 53.7184 16.8197 53.8315 19.0304 55.7506Z" fill="black"/>
<path fill-rule="evenodd" clip-rule="evenodd" d="M43.7144 0.654241C36.1903 4.68521 37.9448 18.1864 45.6082 15.2256C46.812 14.7603 46.8481 15.0738 45.9827 18.4746C45.142 21.7767 43.8694 22.8222 42.448 21.3777C41.2719 20.1824 42.9055 17.7566 44.2939 18.6376C45.2099 19.2191 45.6266 18.6364 45.0618 17.564C44.6803 16.8393 43.6166 16.5585 41.9875 16.7516C40.1356 16.9716 39.408 20.588 40.8904 22.2049C42.1188 23.5449 45.7276 23.2399 47.3516 21.6589C48.6832 20.3625 48.9411 19.6496 50.2327 13.6944C51.5083 7.81412 51.516 7.90655 49.7657 8.01458C48.3432 8.10233 48.3297 8.11949 47.7384 10.5585C47.0189 13.526 45.7594 14.3407 43.9796 12.9901C40.5496 10.3877 43.8879 0.761489 48.0504 1.24937C49.2254 1.38743 49.6472 2.86745 48.9104 4.26714C48.5516 4.94806 48.6283 5.0908 49.4672 5.30491C51.6756 5.86845 52.5318 2.38269 50.5701 0.814526C49.3064 -0.195946 45.4681 -0.285642 43.7144 0.654241ZM132.509 2.14128C132.169 3.31438 131.983 4.36736 132.094 4.48046C132.763 5.16061 133.649 4.4672 134.583 2.53245C135.866 -0.125748 135.876 0.00607092 134.375 0.00685091C133.195 0.00763089 133.094 0.123069 132.509 2.14128ZM81.5143 1.5247C80.6217 1.77703 80.4682 2.21304 79.2943 7.82348C78.6005 11.1384 77.9524 14.2342 77.8538 14.7022C77.6485 15.676 76.2647 16.2774 75.6549 15.6577C75.3652 15.3632 75.3751 14.6402 75.6883 13.1812C75.9316 12.0483 76.3199 10.1997 76.5513 9.07341C76.8821 7.4643 77.1296 7.02595 77.7079 7.02595C78.1124 7.02595 78.4436 6.7627 78.4436 6.44096C78.4436 6.11921 78.1845 5.85597 77.868 5.85597C77.2048 5.85597 77.1956 5.77368 77.645 3.8085L77.9789 2.34603L76.5805 2.35188C74.7607 2.35968 74.3789 2.64983 74.0282 4.29054C73.8685 5.03815 73.4583 5.86845 73.1168 6.13559C72.6409 6.50726 72.6068 6.69601 72.971 6.94132C73.3428 7.19208 73.2707 8.10896 72.6402 11.1412C71.7894 15.2337 71.2479 16.2661 70.1731 15.8472C69.46 15.5687 69.4996 14.7564 70.4336 10.4653C71.2211 6.8485 69.6941 5.06662 66.7684 6.18902C66.0006 6.48346 65.5451 6.50453 65.461 6.24869C65.248 5.59896 62.3335 5.7729 62.0779 6.45032C61.9543 6.77713 61.4819 8.7466 61.028 10.8268C60.1507 14.8453 58.9741 16.3858 56.7818 16.3858C54.5046 16.3858 54.3058 13.6114 56.5343 12.9328C59.7232 11.9617 61.7878 7.41399 59.5839 6.21554C55.9295 4.22775 51.5812 8.64247 51.5812 14.3403C51.5812 18.4797 54.4682 19.416 59.3521 16.8612C59.5102 16.7785 59.6399 17.0866 59.6399 17.5456C59.6399 18.2866 59.8234 18.3669 61.2709 18.2605L62.9018 18.1407L63.7886 14.0458C64.7081 9.80231 65.4088 8.19593 66.3417 8.19593C67.3329 8.19593 67.3943 8.98527 66.6963 12.7518L66.0052 16.4825L67.0651 17.4091C68.2869 18.4769 69.8411 18.6013 71.0668 17.7285C71.8389 17.179 72.0008 17.179 72.7729 17.7285C73.9161 18.5428 75.3095 18.4917 76.7777 17.5819C77.9743 16.8401 77.9981 16.8401 78.66 17.5831C79.5123 18.5405 80.9564 18.5409 82.7124 17.5846C83.9396 16.9158 84.1553 16.8978 84.6687 17.4193C85.9324 18.7039 88.4533 18.5007 91.5869 16.8612C91.7454 16.7785 91.8747 17.0866 91.8747 17.5456C91.8747 18.2866 92.0582 18.3669 93.5057 18.2605L95.1366 18.1407L96.0235 14.0458C96.9429 9.80231 97.6436 8.19593 98.5765 8.19593C99.5651 8.19593 99.572 8.87997 98.6276 13.3267C97.5588 18.3576 97.5546 18.3357 99.5409 18.3357H101.022L101.85 14.5333C102.941 9.52814 102.96 9.46535 103.632 8.78325C104.911 7.48263 105.419 8.03564 105.151 10.4384C104.391 17.2426 104.384 17.0117 105.349 17.6985C106.553 18.5557 107.831 18.5007 109.386 17.5238C110.097 17.0776 110.678 16.8737 110.678 17.0714C110.678 18.363 114.476 18.677 116.535 17.5558C118.283 16.6034 118.417 16.596 118.274 17.4583C118.181 18.0234 118.456 18.1407 119.871 18.1407H121.58L122.263 14.6308C123.237 9.63188 123.278 9.48641 123.946 8.80821C125.571 7.1562 126.234 8.5399 125.453 11.959C124.421 16.4845 124.933 18.3443 127.21 18.3299C128.36 18.3225 128.855 17.9988 129.438 16.8733C129.808 16.1592 129.792 15.9958 129.351 15.9958C128.171 15.9958 127.961 15.0625 128.556 12.4679C129.713 7.42998 128.564 5.00695 125.564 6.15743C124.753 6.46865 124.257 6.50102 124.174 6.24869C124.103 6.03264 123.294 5.85597 122.377 5.85597C120.489 5.85597 120.665 5.55099 119.667 10.5359C118.832 14.7053 118.603 15.1495 116.925 15.862C115.166 16.6089 113.903 16.2852 113.587 15.0064C113.277 13.751 113.484 13.4179 114.777 13.088C119.572 11.865 120.733 5.85597 116.173 5.85597C113.018 5.85597 110.564 8.88153 110.005 13.4608C109.763 15.4369 109.592 15.8191 108.904 15.919C107.758 16.0851 107.578 15.2493 108.196 12.6204C109.056 8.96616 108.939 7.16361 107.796 6.40196C106.693 5.6676 104.801 5.88405 103.731 6.86722C103.123 7.42647 102.997 7.40931 102.267 6.66754C101.382 5.76822 99.9323 5.62041 98.6794 6.30173C98.0642 6.63634 97.8228 6.63634 97.7131 6.30173C97.4986 5.64693 94.5821 5.73624 94.3292 6.40547C94.2152 6.70771 93.7459 8.67601 93.2862 10.7792C92.3982 14.8426 91.2228 16.3858 89.0166 16.3858C86.7394 16.3858 86.5407 13.6114 88.7691 12.9328C91.958 11.9617 94.0226 7.41399 91.8187 6.21554C88.3838 4.34708 83.816 8.63116 83.816 13.7206C83.816 15.2029 83.2546 15.9958 82.2043 15.9958C81.6951 15.9958 81.5136 15.6932 81.5136 14.8441C81.5136 13.8758 83.4411 4.03977 84.0586 1.85854C84.2677 1.1195 83.3663 1.00133 81.5143 1.5247ZM138.942 6.04745C138.628 6.36725 138.16 7.28841 137.903 8.09492C137.234 10.1927 135.784 13.0338 135.076 13.6305C132.884 15.4794 135.893 18.81 139.187 18.1817C142.424 17.5647 142.983 16.2672 142.658 10.1311L142.412 5.46597H140.963C140.166 5.46597 139.257 5.72766 138.942 6.04745ZM58.4887 8.42095C58.4887 9.80777 56.8344 12.0959 55.832 12.0959C54.9387 12.0959 55.8485 8.98449 57.1199 7.69283C58.1134 6.68314 58.4887 6.88243 58.4887 8.42095ZM90.7235 8.42095C90.7235 9.80777 89.0692 12.0959 88.0668 12.0959C87.1735 12.0959 88.0833 8.98449 89.3547 7.69283C90.3482 6.68314 90.7235 6.88243 90.7235 8.42095ZM117.136 8.15147C117.287 9.20016 116.391 10.6814 115.074 11.5584C113.777 12.4219 113.631 12.1419 114.33 10.1287C115.331 7.24707 116.851 6.17576 117.136 8.15147ZM138.872 15.4841C138.256 16.4396 136.634 16.7138 136.165 15.9424C136.015 15.6963 136.281 15.2029 136.763 14.8336C137.368 14.3695 137.557 13.9335 137.388 13.3906C137.246 12.9371 137.502 11.8139 138 10.697L138.856 8.78092L139.154 11.6817C139.393 13.9975 139.336 14.7646 138.872 15.4841Z" fill="black"/>
<path fill-rule="evenodd" clip-rule="evenodd" d="M61.5473 82.2013C57.4938 83.6731 57.6753 88.7153 61.8535 90.7199C64.9392 92.2003 65.7543 93.4467 64.3886 94.5984C63.8916 95.0176 63.4641 94.9638 61.8739 94.2809L59.9578 93.4584L59.2064 94.7013C57.1 98.1836 65.3556 99.3461 67.9931 95.9384C69.9663 93.3894 68.7921 90.2878 65.2006 88.5613C62.4641 87.2454 61.8006 86.5602 62.3156 85.5821C62.8256 84.6138 63.6752 84.6305 65.5398 85.6461L67.0399 86.4631L67.7322 85.5486C68.7579 84.1934 68.5964 83.4886 67.0928 82.7601C65.2056 81.8456 63.1084 81.6342 61.5473 82.2013ZM97.6549 82.2781C91.2858 84.354 90.2984 93.5746 96.0907 96.8829C101.287 99.8512 107.472 96.6037 107.893 90.6852C108.323 84.6298 103.243 80.4572 97.6549 82.2781ZM73.8138 89.899V97.6988H75.5407H77.2675V94.5789V91.4589H80.5294H83.7912V94.5789V97.6988H85.5181H87.245V89.899V82.0991H85.5342H83.8235L83.7114 85.1215L83.5994 88.144H80.5294H77.4594L77.3474 85.1215L77.2353 82.0991H75.5245H73.8138V89.899ZM112.956 89.8849V97.7417L114.779 97.6228L116.602 97.5038L116.655 95.5539C116.684 94.4814 116.728 93.3208 116.751 92.9744C116.781 92.5337 117.314 92.2725 118.527 92.1036C123.427 91.4207 125.419 87.1132 122.388 83.7507L121.075 82.2941L117.016 82.1611L112.956 82.0281V89.8849ZM47.9811 84.1466C47.6226 84.4149 47.0282 85.2393 46.6606 85.9791C45.7968 87.7173 45.4733 87.7868 36.7645 88.1038C28.4011 88.408 23.0378 88.7383 22.8072 88.963C22.3045 89.4536 24.1557 89.6443 34.0744 90.1232C45.3512 90.6672 46.3298 90.8377 46.7792 92.336C47.2162 93.7946 48.1487 94.5789 49.4458 94.5789C51.7897 94.5789 52.7871 91.8403 51.1059 90.0214L50.2713 89.119L51.1059 88.2165C53.3052 85.8372 50.5391 82.234 47.9811 84.1466ZM131.059 84.5615C130.013 85.6937 130 86.7739 131.019 88.0902L131.813 89.1166L131.019 90.2503C130.019 91.6781 130.01 92.8009 130.992 93.7989C132.502 95.3331 135.597 94.2778 135.597 92.2292C135.597 90.9106 137.186 90.6497 148.581 90.0979C158.485 89.6178 160.224 89.4407 159.741 88.9595C159.511 88.7298 154.175 88.4111 145.575 88.1132C137.577 87.8367 135.597 87.4264 135.597 86.0474C135.597 84.0654 132.465 83.0401 131.059 84.5615ZM51.2352 85.3981C51.8101 86.6803 50.8008 88.339 49.4458 88.339C48.0908 88.339 47.0815 86.6803 47.6564 85.3981C48.2746 84.0186 50.617 84.0186 51.2352 85.3981ZM134.369 84.9071C135.099 85.6484 134.929 87.4779 134.088 87.9353C132.541 88.7762 130.992 87.9295 130.992 86.2443C130.992 85.0931 131.687 84.4391 132.911 84.4391C133.46 84.4391 134.116 84.6497 134.369 84.9071ZM103.297 86.9257C105.518 89.1825 104.357 93.2728 101.252 94.1323C97.4016 95.1978 94.3094 90.8923 96.5313 87.559C98.1522 85.127 101.243 84.8376 103.297 86.9257ZM119.505 85.6227C120.376 86.0965 120.486 87.6518 119.697 88.3179C119.116 88.8078 116.533 88.7422 116.698 88.2415C116.75 88.0804 116.794 87.3348 116.794 86.584C116.794 85.1013 117.855 84.7249 119.505 85.6227ZM48.7424 88.8592C49.3219 89.4477 47.8774 89.8873 45.3432 89.8931C42.7955 89.8989 41.7267 89.3892 42.777 88.6689C43.3868 88.2508 48.298 88.4076 48.7424 88.8592ZM139.772 88.6915C140.82 89.3658 139.743 89.899 137.333 89.899C134.803 89.899 133.678 89.6548 133.678 89.1057C133.678 88.4061 138.788 88.0582 139.772 88.6915ZM40.4277 89.119C40.4277 89.3335 40.2447 89.509 40.0213 89.509C39.798 89.509 39.7216 89.3335 39.8521 89.119C39.9826 88.9045 40.1653 88.729 40.2585 88.729C40.3518 88.729 40.4277 88.9045 40.4277 89.119ZM142.377 89.3791C142.236 89.5218 142.121 89.4048 142.121 89.119C142.121 88.8331 142.236 88.7161 142.377 88.8588C142.517 89.002 142.517 89.236 142.377 89.3791ZM50.7889 90.6789C51.2111 91.1079 51.5564 91.7222 51.5564 92.0439C51.5564 92.3657 51.2111 92.9799 50.7889 93.4089C50.3668 93.8379 49.7624 94.1889 49.4458 94.1889C49.1292 94.1889 48.5248 93.8379 48.1027 93.4089C47.6806 92.9799 47.3352 92.3657 47.3352 92.0439C47.3352 91.7222 47.6806 91.1079 48.1027 90.6789C48.5248 90.25 49.1292 89.899 49.4458 89.899C49.7624 89.899 50.3668 90.25 50.7889 90.6789ZM134.128 90.5444C135.408 91.7218 134.651 94.1889 133.01 94.1889C131.188 94.1889 130.358 91.5646 131.845 90.5062C132.922 89.7391 133.258 89.7445 134.128 90.5444Z" fill="black"/>
</svg>
